<?xml version="1.0" encoding="UTF-8" standalone="no"?>
<!-- Created with Inkscape (http://www.inkscape.org/) -->

<svg
   xmlns:dc="http://purl.org/dc/elements/1.1/"
   xmlns:cc="http://creativecommons.org/ns#"
   xmlns:rdf="http://www.w3.org/1999/02/22-rdf-syntax-ns#"
   xmlns:svg="http://www.w3.org/2000/svg"
   xmlns="http://www.w3.org/2000/svg"
   xmlns:sodipodi="http://sodipodi.sourceforge.net/DTD/sodipodi-0.dtd"
   xmlns:inkscape="http://www.inkscape.org/namespaces/inkscape"
   version="1.1"
   id="svg2"
   xml:space="preserve"
   width="400"
   height="400"
   viewBox="0 0 400 400"
   sodipodi:docname="robot.svg"
   inkscape:version="0.92.5 (2060ec1f9f, 2020-04-08)"
   inkscape:export-filename="/home/tumble/documentation/os-theme/backgrounds/robot.png"
   inkscape:export-xdpi="96"
   inkscape:export-ydpi="96"><metadata
     id="metadata8"><rdf:RDF><cc:Work
         rdf:about=""><dc:format>image/svg+xml</dc:format><dc:type
           rdf:resource="http://purl.org/dc/dcmitype/StillImage" /><dc:title></dc:title></cc:Work></rdf:RDF></metadata><defs
     id="defs6"><clipPath
       clipPathUnits="userSpaceOnUse"
       id="clipPath18"><path
         d="M 0,161.008 H 269.008 V 0 H 0 Z"
         id="path16"
         inkscape:connector-curvature="0" /></clipPath><clipPath
       clipPathUnits="userSpaceOnUse"
       id="clipPath26"><path
         d="M 0,339.674 H 269.008 V 178.666 H 0 Z"
         id="path24"
         inkscape:connector-curvature="0" /></clipPath><clipPath
       clipPathUnits="userSpaceOnUse"
       id="clipPath44"><path
         d="M 0,0 H 269.008 V 161.008 H 0 Z"
         id="path42"
         inkscape:connector-curvature="0" /></clipPath><clipPath
       clipPathUnits="userSpaceOnUse"
       id="clipPath138"><path
         d="M 0,161.008 H 269.008 V 0 H 0 Z"
         id="path136"
         inkscape:connector-curvature="0" /></clipPath><clipPath
       clipPathUnits="userSpaceOnUse"
       id="clipPath146"><path
         d="M 0,-23.711 H 269.008 V -184.719 H 0 Z"
         id="path144"
         inkscape:connector-curvature="0" /></clipPath><clipPath
       clipPathUnits="userSpaceOnUse"
       id="clipPath88"><path
         d="M 0,0 H 523.8 V 792 H 0 Z"
         id="path86-3"
         inkscape:connector-curvature="0" /></clipPath><clipPath
       clipPathUnits="userSpaceOnUse"
       id="clipPath44-6"><path
         d="M 0,0 H 523.8 V 792 H 0 Z"
         id="path42-7"
         inkscape:connector-curvature="0" /></clipPath></defs><sodipodi:namedview
     pagecolor="#ffffff"
     bordercolor="#666666"
     borderopacity="1"
     objecttolerance="10"
     gridtolerance="10"
     guidetolerance="10"
     inkscape:pageopacity="0"
     inkscape:pageshadow="2"
     inkscape:window-width="1616"
     inkscape:window-height="917"
     id="namedview4"
     showgrid="false"
     inkscape:zoom="1.0993243"
     inkscape:cx="58.005351"
     inkscape:cy="186.032"
     inkscape:window-x="1873"
     inkscape:window-y="147"
     inkscape:window-maximized="0"
     inkscape:current-layer="g10"
     borderlayer="true" /><g
     id="g10"
     inkscape:groupmode="layer"
     inkscape:label="lenticular_print_v01_monster_35x20_v02_illustrator"
     transform="matrix(1.3333333,0,0,-1.3333333,0,400.00001)"><g
       id="g12"><g
         id="g14"
         clip-path="url(#clipPath18)"><g
           id="g20"><g
             id="g22"
             clip-path="url(#clipPath26)"><g
               id="g28"
               transform="translate(155.3398,416.1565)"><path
                 d="m 0,0 c -86.701,0 -156.982,-70.287 -156.982,-156.986 0,-86.699 70.281,-156.986 156.982,-156.986 86.698,0 156.984,70.287 156.984,156.986 C 156.984,-70.287 86.698,0 0,0"
                 style="fill:#374164;fill-opacity:1;fill-rule:nonzero;stroke:none"
                 id="path30"
                 inkscape:connector-curvature="0" /></g><g
               id="g32"
               transform="translate(149.7187,361.2102)"><path
                 d="m 0,0 c -56.361,0 -102.041,-45.686 -102.041,-102.038 0,-56.356 45.68,-102.041 102.041,-102.041 56.354,0 102.041,45.685 102.041,102.041 C 102.041,-45.686 56.354,0 0,0"
                 style="fill:#88d492;fill-opacity:1;fill-rule:nonzero;stroke:none"
                 id="path34"
                 inkscape:connector-curvature="0" /></g></g></g></g></g><g
       id="g132"><g
         id="g134"
         clip-path="url(#clipPath138)"><g
           id="g140"><g
             id="g142"
             clip-path="url(#clipPath146)"><g
               id="g148"
               transform="translate(155.3398,52.7717)"><path
                 d="m 0,0 c -86.701,0 -156.982,-70.288 -156.982,-156.986 0,-86.699 70.281,-156.986 156.982,-156.986 86.698,0 156.984,70.287 156.984,156.986 C 156.984,-70.288 86.698,0 0,0 Z"
                 style="fill:none;stroke:#e07349;stroke-width:1;stroke-linecap:butt;stroke-linejoin:miter;stroke-miterlimit:10;stroke-dasharray:none;stroke-opacity:1"
                 id="path150"
                 inkscape:connector-curvature="0" /></g></g></g></g></g><g
       id="g1047"
       transform="matrix(1.0910244,0,0,1.0910244,-13.653653,-40.764435)"><path
         inkscape:connector-curvature="0"
         id="path86"
         d="m 113.71527,156.04587 c -8.75148,0 -15.849776,-7.09564 -15.849776,-15.84299 0,-8.75561 7.098296,-15.8543 15.849776,-15.8543 8.74459,0 15.83961,7.09869 15.83961,15.8543 0,8.74735 -7.09502,15.84299 -15.83961,15.84299 z m -0.70072,-11.05212 c 2.43487,0 4.39983,-1.96156 4.39983,-4.39643 0,-2.43074 -1.96496,-4.39644 -4.39983,-4.39644 -2.4266,0 -4.39982,1.9657 -4.39982,4.39644 0,2.43487 1.97322,4.39643 4.39982,4.39643 z"
         style="fill:#231f20;fill-opacity:1;fill-rule:nonzero;stroke:none;stroke-width:1.37796879" /><path
         inkscape:connector-curvature="0"
         id="path935"
         d="m 186.29491,156.04587 c -8.75149,0 -15.84978,-7.09564 -15.84978,-15.84299 0,-8.75561 7.09829,-15.8543 15.84978,-15.8543 8.74459,0 15.8396,7.09869 15.8396,15.8543 0,8.74735 -7.09501,15.84299 -15.8396,15.84299 z m -0.70072,-11.05212 c 2.43488,0 4.39983,-1.96156 4.39983,-4.39643 0,-2.43074 -1.96495,-4.39644 -4.39983,-4.39644 -2.4266,0 -4.39983,1.9657 -4.39983,4.39644 0,2.43487 1.97323,4.39643 4.39983,4.39643 z"
         style="fill:#231f20;fill-opacity:1;fill-rule:nonzero;stroke:none;stroke-width:1.37796879" /></g><path
       style="fill:none;stroke:#231f20;stroke-width:4.65076208;stroke-linecap:round;stroke-linejoin:miter;stroke-miterlimit:4;stroke-dasharray:none;stroke-dashoffset:0;stroke-opacity:1"
       d="m 107.48293,35.50216 12.45987,18.255171 17.96541,-8.692936 14.19847,11.590584 10.14176,-11.300823 11.30083,9.562234 7.24411,-10.721293 15.06776,7.533884"
       id="path1053"
       inkscape:connector-curvature="0" /><rect
       style="opacity:1;vector-effect:none;fill:none;fill-opacity:1;stroke:#231f20;stroke-width:10.50000026;stroke-linecap:round;stroke-linejoin:round;stroke-miterlimit:4;stroke-dasharray:none;stroke-dashoffset:0;stroke-opacity:1;paint-order:stroke fill markers"
       id="rect1013"
       width="92.586937"
       height="42.232632"
       x="103.70654"
       y="-72.399384"
       transform="scale(1,-1)"
       ry="7.3094635" /><g
       id="g1063"
       transform="matrix(0.84945424,0,0,0.84945424,22.581876,-16.929592)"><rect
         ry="5.351028"
         transform="scale(1,-1)"
         y="-273.59238"
         x="144.94626"
         height="81.318695"
         width="10.107489"
         id="rect994"
         style="opacity:1;vector-effect:none;fill:#231f20;fill-opacity:1;stroke:none;stroke-width:1.18190169;stroke-linecap:round;stroke-linejoin:bevel;stroke-miterlimit:4;stroke-dasharray:2.36380323, 1.18190162;stroke-dashoffset:0;stroke-opacity:1;paint-order:stroke fill markers" /><rect
         transform="matrix(0,-1,-1,0,0,0)"
         ry="5.351027"
         y="-177.79565"
         x="-216.02826"
         height="55.591312"
         width="10.107509"
         id="rect994-3"
         style="opacity:1;vector-effect:none;fill:#231f20;fill-opacity:1;stroke:none;stroke-width:1.18190169;stroke-linecap:round;stroke-linejoin:bevel;stroke-miterlimit:4;stroke-dasharray:2.36380323, 1.18190162;stroke-dashoffset:0;stroke-opacity:1;paint-order:stroke fill markers" /><rect
         style="opacity:1;vector-effect:none;fill:#231f20;fill-opacity:1;stroke:none;stroke-width:1.18190169;stroke-linecap:round;stroke-linejoin:bevel;stroke-miterlimit:4;stroke-dasharray:2.36380323, 1.18190162;stroke-dashoffset:0;stroke-opacity:1;paint-order:stroke fill markers"
         id="rect1011"
         width="10.107498"
         height="35.376274"
         x="-230.81784"
         y="-167.68814"
         ry="5.351027"
         transform="matrix(0,-1,-1,0,0,0)" /><circle
         transform="scale(1,-1)"
         r="15.460761"
         cy="-266.89398"
         cx="150"
         id="path1039"
         style="opacity:1;vector-effect:none;fill:#231f20;fill-opacity:1;stroke:none;stroke-width:1.71430337;stroke-linecap:round;stroke-linejoin:bevel;stroke-miterlimit:4;stroke-dasharray:3.42860663, 1.71430331;stroke-dashoffset:0;stroke-opacity:1;paint-order:stroke fill markers" /></g><g
       id="g1128"
       transform="translate(0,-5.2251596)"
       style="stroke-width:10.50000026;stroke-miterlimit:4;stroke-dasharray:none"><path
         d="m -148.99693,168.12149 a 43.573097,43.573097 0 0 1 -26.29455,40.00084"
         sodipodi:open="true"
         sodipodi:end="1.16305"
         sodipodi:start="0"
         sodipodi:ry="43.573097"
         sodipodi:rx="43.573097"
         sodipodi:cy="168.12149"
         sodipodi:cx="-192.57002"
         sodipodi:type="arc"
         transform="matrix(-0.96592583,-0.25881905,-0.25881905,0.96592583,0,0)"
         id="path1081"
         style="opacity:1;vector-effect:none;fill:none;fill-opacity:1;stroke:#231f20;stroke-width:10.50000021;stroke-linecap:round;stroke-linejoin:round;stroke-miterlimit:4;stroke-dasharray:none;stroke-dashoffset:0;stroke-opacity:1;paint-order:stroke fill markers" /><path
         style="opacity:1;vector-effect:none;fill:none;fill-opacity:1;stroke:#231f20;stroke-width:10.50000021;stroke-linecap:round;stroke-linejoin:round;stroke-miterlimit:4;stroke-dasharray:none;stroke-dashoffset:0;stroke-opacity:1;paint-order:stroke fill markers"
         id="path1106"
         transform="matrix(-0.96592583,-0.25881905,-0.25881905,0.96592583,0,0)"
         sodipodi:type="arc"
         sodipodi:cx="-191.16156"
         sodipodi:cy="170.08864"
         sodipodi:rx="74.128136"
         sodipodi:ry="74.128136"
         sodipodi:start="0"
         sodipodi:end="1.16305"
         sodipodi:open="true"
         d="m -117.03342,170.08864 a 74.128136,74.128136 0 0 1 -44.73326,68.05087" /></g><g
       id="g1124"
       transform="matrix(-1,0,0,1,430.40489,-16.140953)"
       style="stroke-width:10.50000026;stroke-miterlimit:4;stroke-dasharray:none"><path
         style="opacity:1;vector-effect:none;fill:none;fill-opacity:1;stroke:#231f20;stroke-width:10.50000021;stroke-linecap:round;stroke-linejoin:round;stroke-miterlimit:4;stroke-dasharray:none;stroke-dashoffset:0;stroke-opacity:1;paint-order:stroke fill markers"
         id="path1118"
         transform="matrix(-0.96592583,-0.25881905,-0.25881905,0.96592583,0,0)"
         sodipodi:type="arc"
         sodipodi:cx="-322.58041"
         sodipodi:cy="144.58617"
         sodipodi:rx="43.573097"
         sodipodi:ry="43.573097"
         sodipodi:start="0"
         sodipodi:end="1.16305"
         sodipodi:open="true"
         d="M -279.00732,144.58617 A 43.573097,43.573097 0 0 1 -305.30188,184.587" /><path
         d="m -247.04383,146.55331 a 74.128136,74.128136 0 0 1 -44.73326,68.05088"
         sodipodi:open="true"
         sodipodi:end="1.16305"
         sodipodi:start="0"
         sodipodi:ry="74.128136"
         sodipodi:rx="74.128136"
         sodipodi:cy="146.55331"
         sodipodi:cx="-321.17197"
         sodipodi:type="arc"
         transform="matrix(-0.96592583,-0.25881905,-0.25881905,0.96592583,0,0)"
         id="path1120"
         style="opacity:1;vector-effect:none;fill:none;fill-opacity:1;stroke:#231f20;stroke-width:10.50000021;stroke-linecap:round;stroke-linejoin:round;stroke-miterlimit:4;stroke-dasharray:none;stroke-dashoffset:0;stroke-opacity:1;paint-order:stroke fill markers" /></g></g></svg>